<svg width="50" height="50" viewBox="0 0 28 28" fill="none" xmlns="http://www.w3.org/2000/svg">
<g clip-path="url(#clip0)">
<path d="M3.67396 24.876C3.67396 24.876 3.64996 25.48 4.23996 25.48C4.97396 25.48 11.051 25.472 11.051 25.472L11.061 19.891C11.061 19.891 10.965 18.971 11.858 18.971H14.684C15.74 18.971 15.675 19.891 15.675 19.891L15.663 25.454C15.663 25.454 21.425 25.454 22.33 25.454C23.079 25.454 23.045 24.702 23.045 24.702V14.413L13.649 6.05499L3.67396 14.413C3.67396 14.413 3.67396 24.876 3.67396 24.876Z" fill="white"/>
<path d="M0 13.635C0 13.635 0.847 15.196 2.694 13.635L13.732 4.29699L24.081 13.577C26.219 15.119 27.02 13.577 27.02 13.577L13.732 1.53999L0 13.635Z" fill="white"/>
<path d="M23.83 4.27499H21.168L21.179 7.50299L23.83 9.75199V4.27499Z" fill="white"/>
</g>
<defs>
<clipPath id="clip0">
<rect width="27.02" height="27.02" fill="white"/>
</clipPath>
</defs>
</svg>
