<?xml version="1.0" encoding="iso-8859-1"?>
<!-- Generator: Adobe Illustrator 19.0.0, SVG Export Plug-In . SVG Version: 6.00 Build 0)  -->
<svg version="1.1" id="Capa_1" xmlns="http://www.w3.org/2000/svg" xmlns:xlink="http://www.w3.org/1999/xlink" x="0px" y="0px"
	 viewBox="0 0 512 512" style="enable-background:new 0 0 512 512;" xml:space="preserve">
<path style="fill:#FFE78C;" d="M256,42.844c-69.431,0-135.741,13.337-196.528,37.571c-26.278,10.476-37.577,15.678-24.566,40.798
	l188.13,363.237c13.846,26.734,52.083,26.734,65.929,0l188.13-363.237c13.01-25.12,1.711-30.322-24.566-40.798
	C391.741,56.18,325.431,42.844,256,42.844z"/>
<g>
	<path style="fill:#E15F76;" d="M358.965,266.257c-35.165,0-63.673,28.507-63.673,63.673c0,27.772,17.786,51.377,42.584,60.081
		l57.985-111.957C385.451,270.635,372.723,266.257,358.965,266.257z"/>
	<path style="fill:#E15F76;" d="M180.972,194.646c-24.866-24.866-65.181-24.866-90.047,0c-4.304,4.304-7.845,9.078-10.659,14.147
		l48.768,94.16c18.516,2.011,37.743-4.066,51.938-18.261C205.838,259.827,205.838,219.512,180.972,194.646z"/>
</g>
<path style="fill:#F9993E;" d="M305.336,145.279L305.336,145.279c-33.274,10.146-59.373,36.063-69.769,69.223
	c-2.843,9.069-0.787,19.084,5.854,25.885c13.498,13.822,36.793,8.1,42.405-10.304l0,0l0,0c0.413-1.353,2.119-1.779,3.119-0.778
	l14.177,14.177c7.28,7.28,19.083,7.28,26.363,0l6.04-6.04c7.28-7.28,7.28-19.083,0-26.363l-14.177-14.178
	c-1-1-0.575-2.706,0.779-3.119l0,0l0,0c18.302-5.581,24.063-28.649,10.533-42.179C324.034,144.978,314.297,142.546,305.336,145.279z
	"/>
<g style="opacity:0.15;">
	<path d="M260.964,225.657c-1.169,0-2.355-0.274-3.464-0.852c-3.672-1.916-5.096-6.446-3.18-10.119
		c6.208-11.897,13.069-21.524,20.978-29.432c7.906-7.907,17.533-14.769,29.431-20.977c3.672-1.918,8.203-0.493,10.119,3.18
		c1.916,3.673,0.492,8.203-3.18,10.119c-10.524,5.491-18.952,11.472-25.764,18.284c-6.814,6.813-12.794,15.24-18.285,25.765
		C266.281,224.189,263.668,225.657,260.964,225.657z"/>
	<path d="M313.761,231.218c-1.919,0-3.839-0.732-5.304-2.196l-33.16-33.16c-2.929-2.93-2.929-7.678,0-10.607
		c2.93-2.928,7.678-2.928,10.607,0l33.16,33.16c2.929,2.93,2.929,7.678,0,10.607C317.6,230.485,315.68,231.218,313.761,231.218z"/>
</g>
<path style="fill:#F9993E;" d="M283.045,397.079L283.045,397.079c-10.146-33.274-36.063-59.373-69.223-69.769
	c-9.069-2.844-19.085-0.787-25.885,5.854c-13.822,13.497-8.1,36.793,10.304,42.405l0,0c1.353,0.413,1.779,2.119,0.778,3.119
	l-14.177,14.177c-2.436,2.436-4.037,5.381-4.843,8.491l13.508,26.081c7.262,5.005,17.278,4.292,23.738-2.169l14.177-14.177
	c1.001-1,2.706-0.575,3.119,0.779l0,0c5.581,18.302,28.649,24.063,42.179,10.533C283.345,415.778,285.777,406.04,283.045,397.079z"
	/>
<g style="opacity:0.15;">
	<path d="M257.403,407.444c-2.705,0-5.317-1.468-6.655-4.032c-5.492-10.524-11.473-18.952-18.285-25.766
		c-6.814-6.813-15.241-12.794-25.764-18.284c-3.672-1.916-5.096-6.446-3.18-10.119c1.915-3.672,6.445-5.098,10.119-3.18
		c11.896,6.207,21.523,13.068,29.432,20.977c7.908,7.908,14.77,17.535,20.978,29.433c1.916,3.672,0.492,8.203-3.18,10.119
		C259.759,407.17,258.572,407.444,257.403,407.444z"/>
	<path d="M204.606,413.004c-1.92,0-3.839-0.732-5.303-2.196c-2.929-2.93-2.929-7.678,0-10.607l33.16-33.16
		c2.929-2.928,7.678-2.928,10.606,0c2.929,2.93,2.929,7.678,0,10.607l-33.16,33.16C208.445,412.272,206.525,413.004,204.606,413.004
		z"/>
</g>
<g style="opacity:0.1;">
	<circle cx="357.07" cy="297.86" r="6.915"/>
	<circle cx="119.28" cy="218.16" r="6.915"/>
	<circle cx="150.7" cy="263.86" r="6.915"/>
</g>
<g style="opacity:0.2;">
	<circle style="fill:#FFFFFF;" cx="321.62" cy="316.79" r="6.915"/>
	<circle style="fill:#FFFFFF;" cx="332.07" cy="345.8" r="6.915"/>
	<circle style="fill:#FFFFFF;" cx="164.53" cy="218.16" r="6.915"/>
</g>
<path style="opacity:0.1;enable-background:new    ;" d="M452.528,80.414C391.741,56.18,325.431,42.844,256,42.844
	S120.259,56.181,59.472,80.415c-26.278,10.477-37.577,15.678-24.566,40.798l188.13,363.237c13.846,26.734,52.083,26.734,65.929,0
	l9.229-17.818c-74.444-40.529-127.415-205.473-147.859-318.354c33.892-8.15,69.272-12.478,105.666-12.478
	c66.247,0,129.152,14.301,185.801,39.982c1.977,0.896,4.012,1.513,6.06,1.875l29.233-56.443
	C490.105,96.092,478.806,90.891,452.528,80.414z"/>
<path style="fill:#9B6A57;" d="M256,7.5c-82.08,0-159.955,17.975-229.932,50.177C13.155,63.62,7.911,79.229,14.449,91.851
	l23.128,44.655c6.139,11.853,20.471,16.729,32.628,11.217C126.853,122.04,189.753,107.731,256,107.731
	s129.152,14.301,185.801,39.982c12.157,5.511,26.489,0.635,32.628-11.217l23.123-44.645c6.537-12.622,1.294-28.231-11.62-34.174
	C415.955,25.475,338.08,7.5,256,7.5z"/>
<path style="opacity:0.1;enable-background:new    ;" d="M138.973,19.982c-39.366,8.525-77.167,21.25-112.905,37.695
	C13.155,63.62,7.911,79.229,14.449,91.851l23.128,44.655c6.139,11.853,20.471,16.729,32.628,11.217
	c30.436-13.799,62.68-24.309,96.276-31.086C124.444,105.271,117.961,41.191,138.973,19.982z"/>
<path d="M320.218,58.525V49.11c0-4.143-3.357-7.5-7.5-7.5s-7.5,3.357-7.5,7.5v9.415c0,4.143,3.357,7.5,7.5,7.5
	S320.218,62.668,320.218,58.525z M256,73.256c7.898,0,15.409-3.421,20.607-9.385c2.722-3.123,2.396-7.86-0.727-10.582
	c-3.124-2.722-7.86-2.396-10.582,0.726c-2.349,2.694-5.737,4.24-9.299,4.24c-3.562,0-6.951-1.546-9.3-4.24
	c-2.721-3.124-7.459-3.447-10.581-0.726c-3.123,2.722-3.448,7.46-0.726,10.582C240.591,69.835,248.102,73.256,256,73.256z
	 M228.41,212.258c-3.74,11.926-0.811,24.712,7.644,33.369c8.2,8.397,19.899,11.754,31.287,8.983
	c8.467-2.062,15.525-7.202,19.996-14.308l8.48,8.482c5.097,5.096,11.791,7.644,18.485,7.644c6.694,0,13.389-2.549,18.485-7.644
	l6.04-6.04c10.192-10.193,10.192-26.777-0.001-36.971l-8.483-8.482c7.049-4.439,12.17-11.426,14.262-19.802
	c2.821-11.297-0.41-22.957-8.644-31.191c-8.603-8.602-21.179-11.744-32.813-8.193l2.187,7.174l-2.188-7.174
	C267.498,148.976,239.559,176.696,228.41,212.258z M307.524,152.453c6.324-1.928,13.157-0.223,17.831,4.453
	c4.475,4.474,6.231,10.811,4.698,16.95s-6.063,10.906-12.118,12.753c-3.176,0.97-5.553,3.473-6.358,6.694
	c-0.805,3.223,0.116,6.549,2.467,8.901l14.177,14.177c4.345,4.344,4.345,11.412,0,15.756l-6.04,6.04
	c-4.344,4.344-11.412,4.343-15.756,0.001l-14.18-14.181c-1.79-1.789-4.147-2.749-6.594-2.749c-0.765,0-1.538,0.094-2.305,0.285
	c-3.223,0.806-5.726,3.183-6.695,6.361c-1.858,6.095-6.665,10.633-12.857,12.14c-6.187,1.507-12.547-0.32-17.008-4.889
	c-4.591-4.701-6.147-11.752-4.063-18.401C252.39,185.912,276.614,161.878,307.524,152.453z M206.782,58.525V49.11
	c0-4.143-3.358-7.5-7.5-7.5s-7.5,3.357-7.5,7.5v9.415c0,4.143,3.358,7.5,7.5,7.5S206.782,62.668,206.782,58.525z M506.095,69.725
	c-2.898-8.443-8.946-15.142-17.027-18.861C415.726,17.113,337.311,0,256,0c-48.362,0-96.382,6.2-142.727,18.429
	c-4.005,1.057-6.395,5.16-5.338,9.165c1.057,4.006,5.162,6.394,9.165,5.339C162.196,21.033,208.929,15,256,15
	c79.13,0,155.435,16.65,226.796,49.49c4.321,1.988,7.558,5.577,9.112,10.106c1.577,4.593,1.216,9.496-1.018,13.807l-23.122,44.645
	c-4.281,8.267-14.328,11.708-22.871,7.835c-59.503-26.974-123.058-40.65-188.897-40.65c-65.828,0-129.38,13.681-188.892,40.661
	c-8.544,3.874-18.589,0.432-22.872-7.836L21.108,88.402c-2.232-4.311-2.594-9.214-1.017-13.807
	c1.555-4.528,4.791-8.117,9.112-10.106c13.598-6.258,27.623-12.016,41.683-17.113c3.894-1.412,5.906-5.713,4.494-9.607
	c-1.412-3.894-5.712-5.906-9.607-4.494c-14.451,5.239-28.865,11.157-42.841,17.589c-8.08,3.719-14.128,10.417-17.027,18.86
	c-2.879,8.384-2.192,17.707,1.884,25.577l23.128,44.654c2.81,5.426,6.957,9.726,11.835,12.714l30.824,59.514
	c0.005,0.01,0.011,0.021,0.016,0.032l48.795,94.211c0.008,0.014,0.015,0.029,0.022,0.043l64.403,124.348
	c0.008,0.016,0.016,0.031,0.024,0.047l29.54,57.034C224.075,502.765,239.258,512,256,512c0,0,0,0,0.001,0
	c16.74,0,31.925-9.236,39.625-24.102l5.427-10.479c1.904-3.679,0.467-8.204-3.211-10.109c-3.678-1.902-8.204-0.468-10.109,3.211
	L282.305,481c-5.188,10.019-15.022,16-26.305,16c-11.282,0-21.116-5.981-26.305-16l-22.269-42.997
	c5.563-0.72,10.911-3.221,15.122-7.432l8.483-8.483c4.438,7.048,11.426,12.17,19.802,14.261c11.298,2.823,22.957-0.411,31.19-8.643
	c8.603-8.604,11.743-21.177,8.194-32.814c-10.871-35.649-38.592-63.589-74.153-74.737c-11.927-3.74-24.713-0.81-33.369,7.644
	c-8.398,8.2-11.756,19.896-8.983,31.287c2.061,8.466,7.201,15.524,14.307,19.995l-7.32,7.321l-39.255-75.793
	c16.815-1.274,32.667-8.449,44.83-20.611c13.443-13.443,20.846-31.316,20.846-50.327c0-19.012-7.403-36.884-20.846-50.327
	c-13.442-13.442-31.316-20.846-50.327-20.846s-36.884,7.403-50.327,20.846c-1.561,1.561-3.04,3.199-4.447,4.897l-19.084-36.846
	c3.776-0.267,7.569-1.188,11.211-2.839c57.553-26.093,119.021-39.323,182.698-39.323c63.689,0,125.16,13.227,182.704,39.313
	c3.642,1.651,7.434,2.573,11.209,2.84l-56.977,110.01c-10.387-5.669-21.979-8.637-33.972-8.637
	c-39.244,0-71.172,31.928-71.172,71.173c0,27.289,15.645,51.968,39.694,63.832l-19.667,37.972
	c-1.904,3.678-0.467,8.204,3.211,10.109c1.103,0.57,2.281,0.842,3.443,0.842c2.713,0,5.332-1.477,6.666-4.053l148.112-285.971
	c4.88-2.988,9.026-7.29,11.837-12.716l23.122-44.645C508.287,87.431,508.974,78.108,506.095,69.725z M193.177,338.529
	c4.701-4.591,11.751-6.146,18.401-4.063c30.833,9.666,54.867,33.891,64.293,64.8c1.929,6.324,0.222,13.157-4.454,17.832
	c-4.474,4.475-10.81,6.228-16.949,4.697c-6.14-1.533-10.907-6.061-12.753-12.116c-0.97-3.177-3.472-5.554-6.695-6.358
	c-3.223-0.804-6.551,0.116-8.901,2.467l-14.177,14.177c-3.406,3.405-8.55,4.185-12.763,2.115l-10.99-21.219
	c0.513-0.985,1.156-1.892,1.956-2.693l14.176-14.176c2.35-2.349,3.272-5.676,2.468-8.899c-0.804-3.224-3.181-5.728-6.361-6.698
	c-6.095-1.858-10.633-6.665-12.141-12.857C186.782,349.348,188.609,342.99,193.177,338.529z M96.229,199.95
	c10.61-10.61,24.716-16.453,39.72-16.453c15.004,0,29.11,5.843,39.72,16.453c10.609,10.609,16.453,24.715,16.453,39.72
	c0,15.004-5.843,29.11-16.453,39.72c-11.158,11.159-26.25,17.008-41.907,16.384l-44.91-86.712
	C90.99,205.77,93.461,202.717,96.229,199.95z M334.388,380.439c-19.131-9.312-31.595-28.871-31.595-50.509
	c0-30.974,25.198-56.173,56.172-56.173c9.566,0,18.809,2.39,27.072,6.958L334.388,380.439z"/>
<g>
</g>
<g>
</g>
<g>
</g>
<g>
</g>
<g>
</g>
<g>
</g>
<g>
</g>
<g>
</g>
<g>
</g>
<g>
</g>
<g>
</g>
<g>
</g>
<g>
</g>
<g>
</g>
<g>
</g>
</svg>
